<?xml version="1.0"?>
<svg xmlns="http://www.w3.org/2000/svg" xmlns:xlink="http://www.w3.org/1999/xlink" xmlns:svgjs="http://svgjs.com/svgjs" version="1.1" width="512" height="512" x="0" y="0" viewBox="0 0 303.6 303.6" style="enable-background:new 0 0 512 512" xml:space="preserve" class=""><g>
<g xmlns="http://www.w3.org/2000/svg">
	<g>
		<g>
			<path d="M296.4,118.8c-4.4-4.4-10.4-7.2-17.2-7.2h-25.6c-0.4-0.8-0.4-1.2-0.8-2c-0.4-0.8-0.4-1.2-0.8-2l18-18     c4.8-4.8,7.2-11.2,7.2-17.2c0-6.4-2.4-12.4-7.2-17.2l-22-22c-4.8-4.8-10.8-7.2-17.2-7.2s-12.4,2.4-17.2,7.2l-18,18     c-0.8-0.4-1.2-0.4-2-0.8s-1.2-0.4-2-0.8h0.4V24.4c0-6.8-2.8-12.8-7.2-17.2C180.4,2.8,174.4,0,167.6,0h-31.2     c-6.8,0-12.8,2.8-17.2,7.2c-4.4,4.4-7.2,10.4-7.2,17.2V50c-0.8,0.4-1.2,0.4-2,0.8c-0.8,0.4-1.2,0.4-2,0.8l-18-18     c-4.8-4.8-11.2-7.2-17.2-7.2c-6.4,0-12.4,2.4-17.2,7.2l-22,22c-4.8,4.8-7.2,11.2-7.2,17.2c0,5.6,2,11.6,6.4,16.4l0.4,0.4l18,18     c-0.4,0.8-0.4,1.2-0.8,2c-0.4,0.8-0.4,1.2-0.8,2H24c-6.4,0-12,2.8-16.4,6.8l-0.4,0.4C2.8,123.2,0,129.2,0,136v31.2     c0,6.8,2.8,12.8,7.2,17.2c4.4,4.4,10.4,7.2,17.2,7.2H50c0.4,0.8,0.4,1.2,0.8,2c0.4,0.8,0.4,1.2,0.8,2l-18,18     c-4.8,4.8-7.2,11.2-7.2,17.2c0,5.6,2,11.6,6.4,16.4l0.4,0.4l22,22.4c4.8,4.8,11.2,7.2,17.2,7.2c6.4,0,12.4-2.4,17.2-7.2l18-18     c0.8,0.4,1.2,0.4,2,0.8c0.8,0.4,1.2,0.4,2,0.8v25.6c0,6.4,2.8,12.4,7.2,17.2c4.4,4.4,10.4,7.2,17.2,7.2h31.2     c6.8,0,12.8-2.8,17.2-7.2c4.4-4.4,7.2-10.4,7.2-17.2v-25.6c0.8-0.4,1.2-0.4,2-0.8c0.8-0.4,1.2-0.4,2-0.8l18,17.6     c4.8,4.8,11.2,7.2,17.2,7.2c5.6,0,11.6-2,16.4-6.4l0.4-0.4l22.4-22c4.8-4.8,7.2-11.2,7.2-17.2c0-6.4-2.4-12.4-7.2-17.2l-18-18     c0.4-0.8,0.4-1.2,0.8-2c0.4-0.8,0.4-1.2,0.8-2h25.6c6.4,0,12.4-2.8,17.2-7.2c4.4-4.4,7.2-10.4,7.2-17.2V136     C303.6,129.2,300.8,123.2,296.4,118.8z M288,166.4c0,2.4-1.2,4.4-2.4,5.6c-1.6,1.6-3.6,2.4-5.6,2.4h-31.2c-4,0-7.2,2.4-8,6     c-0.8,2-1.6,4-2.4,6c-0.8,2.4-1.6,4.4-2.8,6.4c-1.6,3.2-0.8,7.2,1.6,9.6l22,22c1.6,1.6,2.4,3.6,2.4,5.6s-0.8,4-2.4,5.6l-22,22     l-0.4,0.4c-1.6,1.2-3.2,2-5.2,2s-4-0.8-5.6-2.4l-22-22c-2.8-2.8-6.8-3.2-10-1.2c-2,1.2-4,2-6,2.8s-4,1.6-6.4,2.4     c-3.2,1.2-5.6,4.4-5.6,8v32c0,2.4-1.2,4.4-2.4,5.6c-1.6,1.6-3.6,2.4-5.6,2.4h-31.2c-2.4,0-4.4-1.2-5.6-2.4     c-1.6-1.6-2.4-3.6-2.4-5.6v-31.2c0-4-2.4-7.2-6-8c-2-0.8-4-1.6-6-2.4c-2.4-0.8-4.4-1.6-6.4-2.8c-3.2-1.6-7.2-0.8-9.6,1.6l-22,22     c-1.6,1.6-3.6,2.4-5.6,2.4s-4-0.4-5.6-2l-22-22c0-0.4-0.4-0.4-0.4-0.4c-1.2-1.6-2-3.2-2-5.2s0.8-4,2.4-5.6l22-22     c2.8-2.8,3.2-6.8,1.2-10c-1.2-2-2-4-2.8-6s-1.6-4-2.4-6.4c-1.2-3.2-4.4-5.6-8-5.6H24c-2.4,0-4.4-1.2-5.6-2.4     C16.8,172,16,170,16,168v-31.2c0-2.4,1.2-4.4,2.4-5.6l0.4-0.4c1.6-1.2,3.2-2,5.2-2h31.2c4,0,7.2-2.4,8-6c0.8-2,1.6-4,2.4-6     c0.8-2.4,1.6-4.4,2.8-6.4c1.6-3.2,0.8-7.2-1.6-9.6l-22-22c0-0.4-0.4-0.4-0.4-0.4c-1.2-1.6-2-3.2-2-5.2s0.8-4,2.4-5.6l22-22     c1.6-1.6,3.6-2.4,5.6-2.4s4,0.8,5.6,2.4l22,22c2.8,2.8,6.8,3.2,10,1.2c2-1.2,4-2,6-2.8c2-0.8,4.4-1.6,6.4-2.4     c3.2-1.2,5.6-4.4,5.6-8V24c0-2.4,1.2-4.4,2.4-5.6C132,16.8,134,16,136,16h31.2c2.4,0,4.4,1.2,5.6,2.4c1.6,1.6,2.4,3.6,2.4,5.6     v31.2c0,4,2.4,7.2,6,8c2,0.8,4,1.6,6,2.4c2,1.2,4.4,2,5.6,2c3.2,1.6,7.2,0.8,9.6-1.6l22-22c1.6-1.6,3.6-2.4,5.6-2.4     s4,0.8,5.6,2.4l22,22c1.6,1.6,2.4,3.6,2.4,5.6s-0.8,4-2.4,5.6l-22,22c-2.8,2.8-3.2,6.8-1.2,10c1.2,2,2,4,2.8,6s1.6,4,2.4,6.4     c1.2,3.2,4.4,5.6,8,5.6H280c2.4,0,4.4,1.2,5.6,2.4c1.6,1.6,2.4,3.6,2.4,5.6V166.4z" fill="#2c3e50" data-original="#000000" style="" class=""/>
			<path d="M151.6,87.2c-18,0-34,7.2-45.6,18.8c-11.6,11.6-18.8,27.6-18.8,45.6s7.2,34,18.8,45.6c11.6,11.6,27.6,18.8,45.6,18.8     s34-7.2,45.6-18.8c11.6-11.6,18.8-27.6,18.8-45.6s-7.2-34-18.8-45.6C185.6,94.4,169.6,87.2,151.6,87.2z M185.6,185.6     c-8.8,8.8-20.8,14-34,14s-25.2-5.2-34-14s-14-20.8-14-34s5.6-25.2,14-34c8.8-8.8,20.8-14,34-14s25.2,5.6,34,14     c8.4,8.8,14,20.8,14,34S194.4,176.8,185.6,185.6z" fill="#2c3e50" data-original="#000000" style="" class=""/>
		</g>
	</g>
</g>
<g xmlns="http://www.w3.org/2000/svg">
</g>
<g xmlns="http://www.w3.org/2000/svg">
</g>
<g xmlns="http://www.w3.org/2000/svg">
</g>
<g xmlns="http://www.w3.org/2000/svg">
</g>
<g xmlns="http://www.w3.org/2000/svg">
</g>
<g xmlns="http://www.w3.org/2000/svg">
</g>
<g xmlns="http://www.w3.org/2000/svg">
</g>
<g xmlns="http://www.w3.org/2000/svg">
</g>
<g xmlns="http://www.w3.org/2000/svg">
</g>
<g xmlns="http://www.w3.org/2000/svg">
</g>
<g xmlns="http://www.w3.org/2000/svg">
</g>
<g xmlns="http://www.w3.org/2000/svg">
</g>
<g xmlns="http://www.w3.org/2000/svg">
</g>
<g xmlns="http://www.w3.org/2000/svg">
</g>
<g xmlns="http://www.w3.org/2000/svg">
</g>
</g></svg>
